<?xml version="1.0" encoding="UTF-8"?>
<svg version="1.1" xmlns="http://www.w3.org/2000/svg" width="512" height="513">
<path d="M0 0 C1.41340416 -0.01467567 1.41340416 -0.01467567 2.85536194 -0.02964783 C5.9610963 -0.05946389 9.06678817 -0.08094585 12.17260742 -0.09985352 C13.23706274 -0.10642534 14.30151806 -0.11299717 15.3982296 -0.11976814 C21.03012133 -0.15229722 26.66199462 -0.17676685 32.29394531 -0.19628906 C36.94494153 -0.21411209 41.59533263 -0.24895861 46.24609375 -0.29882812 C51.87463907 -0.35909907 57.50262282 -0.3897733 63.13147545 -0.39946175 C65.27044914 -0.40800256 67.40940837 -0.42678655 69.54819679 -0.45620537 C72.54711574 -0.49524337 75.54385475 -0.49613872 78.54296875 -0.48828125 C79.85485168 -0.51828217 79.85485168 -0.51828217 81.1932373 -0.54888916 C87.91257588 -0.47025526 92.44398571 1.75404107 97.46557617 6.20874023 C102.30348813 12.4464273 103.61562033 17.57094794 103.62670898 25.42456055 C103.63167389 26.26231522 103.63663879 27.10006989 103.64175415 27.96321106 C103.65637153 30.73777079 103.66317771 33.51227331 103.66870117 36.28686523 C103.67445376 38.21636964 103.68021148 40.14587404 103.68597412 42.07537842 C103.69648344 46.12390408 103.7023263 50.17240988 103.70581055 54.22094727 C103.71128967 59.40044117 103.73530558 64.57967146 103.7637825 69.75908279 C103.7824384 73.74658973 103.78761609 77.73403361 103.78914642 81.72158051 C103.79216771 83.63049508 103.80017854 85.53940868 103.8133316 87.44828033 C103.83045089 90.12416921 103.82849735 92.79941987 103.82202148 95.4753418 C103.83123627 96.25897598 103.84045105 97.04261017 103.84994507 97.84999084 C103.79803831 104.72209878 101.87528506 110.08383973 97.34057617 115.39624023 C96.82237305 116.02916992 96.30416992 116.66209961 95.77026367 117.31420898 C88.53772346 123.25960221 80.97189937 123.78844913 71.90698242 123.74780273 C70.72265121 123.75959564 69.53832001 123.77138855 68.31809998 123.78353882 C64.55462364 123.81865111 60.79170253 123.82795115 57.02807617 123.83374023 C53.26818801 123.85014948 49.50854395 123.87233953 45.74876404 123.90536499 C43.41701015 123.92480032 41.08514513 123.93435133 38.75331116 123.93228149 C32.09182159 123.97555154 25.93950302 124.61792839 19.46557617 126.20874023 C18.57430652 131.63565259 18.26156869 136.92925202 18.14916992 142.42358398 C18.11799828 143.70719566 18.11799828 143.70719566 18.0861969 145.01673889 C18.02127664 147.726498 17.96208639 150.43634664 17.90307617 153.14624023 C17.85983612 154.99325437 17.81622016 156.84025975 17.7722168 158.68725586 C17.66565498 163.19432764 17.5642288 167.70148868 17.46557617 172.20874023 C18.2075827 172.2020784 18.94958923 172.19541656 19.71408081 172.18855286 C26.74525246 172.12816123 33.77633258 172.0826244 40.80769157 172.05330372 C44.42163128 172.0377223 48.03535467 172.01662396 51.64916992 171.98242188 C55.14403501 171.94955679 58.6386935 171.93183082 62.13370132 171.92410851 C64.09993562 171.91595935 66.06608811 171.89258441 68.03219604 171.86885071 C77.46157297 171.8671001 86.76952494 172.40765115 93.82021618 179.35279465 C99.3138381 185.54953177 101.2108773 191.58632542 101.09667969 199.73242188 C101.10741264 201.09037117 101.10741264 201.09037117 101.11836243 202.47575378 C101.13514368 205.44066261 101.11591053 208.40403679 101.09448242 211.36889648 C101.09531202 213.44437281 101.09777483 215.51984905 101.10179138 217.59532166 C101.10464206 221.93354191 101.09001801 226.27124379 101.0625 230.609375 C101.02839758 236.156465 101.03444972 241.70262997 101.05316257 247.24976444 C101.06375446 251.53160752 101.05477515 255.8132371 101.03977776 260.09506035 C101.03461301 262.13989057 101.0350569 264.18474324 101.04132271 266.22957039 C101.04680221 269.09168219 101.02631304 271.95249011 100.99902344 274.81445312 C101.00881226 276.06855484 101.00881226 276.06855484 101.01879883 277.34799194 C100.90087947 284.65903906 98.45124741 290.79827694 93.21557617 296.02124023 C92.69479492 296.56393555 92.17401367 297.10663086 91.63745117 297.66577148 C83.94285843 303.13225374 75.74460146 302.60706971 66.68432617 302.50170898 C65.26086883 302.49610433 63.83740566 302.49183834 62.41394043 302.48884583 C58.6918909 302.47746533 54.97020012 302.44805814 51.24829102 302.41473389 C47.44056041 302.38388516 43.63277108 302.37030907 39.82495117 302.35522461 C32.37166373 302.32318069 24.91867048 302.27206837 17.46557617 302.20874023 C17.46926334 303.17873144 17.47295052 304.14872265 17.47674942 305.14810753 C17.56561416 328.76849823 17.63131076 352.38886721 17.67282486 376.00938988 C17.69343525 387.43218305 17.72152683 398.85486568 17.76733398 410.27758789 C17.80724826 420.23559063 17.83302005 430.19351329 17.84193015 440.1515938 C17.84713709 445.42256817 17.85934374 450.69331349 17.8884964 455.96421432 C17.91573794 460.9300242 17.9240035 465.89551165 17.9180069 470.86138916 C17.91910323 472.67939636 17.92700486 474.49741485 17.94239807 476.31535721 C18.10538051 496.56461332 18.10538051 496.56461332 11.28198242 504.86499023 C10.53819336 505.47342773 9.7944043 506.08186523 9.02807617 506.70874023 C8.28686523 507.33780273 7.5456543 507.96686523 6.78198242 508.61499023 C1.32027685 512.37279104 -3.45028412 512.50591597 -9.87939453 512.49926758 C-11.28035873 512.50934341 -11.28035873 512.50934341 -12.70962524 512.5196228 C-15.79320618 512.53859995 -18.8765694 512.54252697 -21.96020508 512.54467773 C-24.10865874 512.55110618 -26.25711153 512.55783458 -28.40556335 512.56484985 C-32.90874256 512.57682215 -37.41184506 512.58053075 -41.91503906 512.5793457 C-47.67514466 512.5791426 -53.43475643 512.60643677 -59.19474506 512.64089012 C-63.63266747 512.66316814 -68.07047124 512.66718295 -72.50844383 512.66612625 C-74.63144824 512.66848115 -76.75445598 512.67729836 -78.87740517 512.69279099 C-81.85237452 512.71246741 -84.82628173 512.70660597 -87.80126953 512.69458008 C-88.67167374 512.70581909 -89.54207794 512.71705811 -90.43885803 512.7286377 C-97.30819311 512.65835648 -102.4664864 510.79340964 -107.74145508 506.34936523 C-108.27125977 505.72545898 -108.80106445 505.10155273 -109.34692383 504.45874023 C-110.1609668 503.53834961 -110.1609668 503.53834961 -110.99145508 502.59936523 C-114.81344193 496.67770459 -115.98003511 490.98543682 -115.89518738 484.03356934 C-115.89775065 483.25085899 -115.90031393 482.46814864 -115.90295488 481.6617198 C-115.90786378 479.06064168 -115.89144826 476.46015476 -115.875 473.85913086 C-115.8741531 471.98605361 -115.8746301 470.11297536 -115.87632751 468.23989868 C-115.87718643 463.17019831 -115.85957732 458.10071192 -115.83860564 453.03106117 C-115.81982167 447.72730221 -115.81808704 442.42353807 -115.81452942 437.11975098 C-115.80521402 427.08308508 -115.78060703 417.0465175 -115.75048095 407.00989485 C-115.71692126 395.58067824 -115.70044698 384.15145688 -115.68539464 372.72220325 C-115.65405706 349.21766113 -115.60130634 325.7132062 -115.53442383 302.20874023 C-116.18873383 302.21984329 -116.84304382 302.23094635 -117.5171814 302.24238586 C-124.36344674 302.35350847 -131.20945346 302.4286264 -138.05639648 302.48339844 C-140.6072837 302.50845151 -143.15809978 302.54250351 -145.70874023 302.5859375 C-149.38779309 302.64699168 -153.06589204 302.67504372 -156.74536133 302.69702148 C-158.43971817 302.73573112 -158.43971817 302.73573112 -160.16830444 302.77522278 C-168.2065713 302.77803265 -175.00530436 301.25880916 -181.14828491 295.76557922 C-187.56225961 288.52444091 -188.67890353 281.22104546 -188.71142578 271.92114258 C-188.72128258 270.68834061 -188.72128258 270.68834061 -188.7313385 269.43063354 C-188.75099974 266.71864721 -188.76271958 264.00671613 -188.77270508 261.29467773 C-188.77881837 259.89894972 -188.77881837 259.89894972 -188.78505516 258.47502518 C-188.80588778 253.54756139 -188.82020026 248.6201252 -188.82958984 243.69262695 C-188.84063375 238.62560137 -188.87501848 233.55901738 -188.91476154 228.49214745 C-188.94101833 224.57654046 -188.94928981 220.66103715 -188.95287132 216.74534988 C-188.95771577 214.87880097 -188.96926798 213.01225602 -188.98790932 211.14579391 C-189.20359913 188.11402998 -189.20359913 188.11402998 -181.47192383 179.27124023 C-173.79259809 172.45128558 -164.13873319 171.62634854 -154.30395508 171.81811523 C-153.18752121 171.82377502 -152.07108734 171.82943481 -150.92082214 171.83526611 C-147.39573142 171.85744825 -143.87170126 171.90761106 -140.34692383 171.95874023 C-137.94003759 171.97882867 -135.53313523 171.9970753 -133.1262207 172.01342773 C-127.26193369 172.05725321 -121.39825456 172.12398072 -115.53442383 172.20874023 C-115.53886505 171.60977936 -115.54330627 171.01081848 -115.54788208 170.39370728 C-115.59270497 164.06514921 -115.6225301 157.7366374 -115.64428711 151.40795898 C-115.65424186 149.05735437 -115.6678105 146.70676178 -115.68530273 144.35620117 C-115.81465934 126.50498918 -115.63699772 109.05115282 -110.90942383 91.70874023 C-110.65 90.74444092 -110.39057617 89.7801416 -110.12329102 88.78662109 C-101.68126659 58.75096956 -82.94245786 31.88477463 -55.47192383 16.39624023 C-52.84267105 14.96725192 -50.1931263 13.58194784 -47.53442383 12.20874023 C-46.6346582 11.72663086 -45.73489258 11.24452148 -44.80786133 10.74780273 C-31.16819249 3.94961858 -15.18109937 0.10051639 0 0 Z M-25.40942383 36.45874023 C-26.20405029 36.76175049 -26.99867676 37.06476074 -27.81738281 37.37695312 C-34.26131414 39.9220463 -39.97783808 43.04805528 -45.53442383 47.20874023 C-46.38133789 47.82491211 -47.22825195 48.44108398 -48.10083008 49.07592773 C-69.23698555 65.14585968 -80.24030828 89.3344095 -83.80906677 115.19923401 C-84.64078354 122.33818657 -84.68441914 129.4676579 -84.70308876 136.64540672 C-84.71036172 138.86194687 -84.72610079 141.07827902 -84.74443054 143.29475403 C-84.79643278 149.58889121 -84.84491044 155.88289806 -84.86035156 162.17724609 C-84.87045975 166.04695672 -84.89983419 169.91611605 -84.94167137 173.78560829 C-84.95392409 175.25068296 -84.95911316 176.71583552 -84.95687294 178.1809597 C-84.93993877 192.85294476 -84.93993877 192.85294476 -89.53442383 198.20874023 C-95.8113279 203.45042714 -102.67456421 202.81117206 -110.56176758 202.81811523 C-111.75386841 202.83374512 -112.94596924 202.849375 -114.17419434 202.86547852 C-118.60657001 202.91788765 -123.03929506 202.93631219 -127.47192383 202.95874023 C-137.39254883 203.04124023 -147.31317383 203.12374023 -157.53442383 203.20874023 C-157.53442383 225.64874023 -157.53442383 248.08874023 -157.53442383 271.20874023 C-138.43289049 271.4186248 -138.43289049 271.4186248 -119.33105469 271.59667969 C-116.92877659 271.6289775 -114.52651262 271.66235233 -112.12426758 271.69702148 C-110.88616333 271.70326538 -109.64805908 271.70950928 -108.37243652 271.71594238 C-95.33899368 271.93305678 -95.33899368 271.93305678 -89.79223633 276.70874023 C-85.84932814 281.92969452 -85.3844148 285.68827137 -85.37620544 292.04838562 C-85.36879848 293.25892025 -85.36879848 293.25892025 -85.36124188 294.49391013 C-85.34584335 297.20703824 -85.33749988 299.92014264 -85.32910156 302.63330078 C-85.31952489 304.57460744 -85.30951493 306.515912 -85.29910278 308.45721436 C-85.27202482 313.73578061 -85.25103091 319.01435582 -85.2311008 324.29295325 C-85.20925908 329.80630621 -85.18186152 335.31963144 -85.15504456 340.83296204 C-85.10509311 351.27701572 -85.06016338 361.72108479 -85.01702219 372.16516858 C-84.96767076 384.05378481 -84.91274487 395.94237321 -84.8573426 407.83096254 C-84.74348491 432.29019711 -84.63739007 456.74945722 -84.53442383 481.20874023 C-61.10442383 481.20874023 -37.67442383 481.20874023 -13.53442383 481.20874023 C-13.51984131 475.27244629 -13.50525879 469.33615234 -13.49023438 463.2199707 C-13.43995886 443.6341882 -13.37352737 424.04848531 -13.29870892 404.46278191 C-13.25373078 392.5848161 -13.21432073 380.70688041 -13.18798828 368.82885742 C-13.16502459 358.47676921 -13.13164474 348.12477614 -13.08572227 337.77276337 C-13.06176816 332.29073364 -13.04305369 326.80879827 -13.03680992 321.32671738 C-13.03076902 316.16719152 -13.01080499 311.0079072 -12.98014832 305.84847069 C-12.97135216 303.95464059 -12.96764877 302.06077895 -12.96941566 300.16692924 C-12.97106673 297.58072292 -12.95438356 294.99525432 -12.93315125 292.40914917 C-12.94042261 291.28558952 -12.94042261 291.28558952 -12.94784087 290.1393317 C-12.88374738 285.40731773 -11.84671046 282.30397008 -9.53442383 278.20874023 C-9.53442383 277.54874023 -9.53442383 276.88874023 -9.53442383 276.20874023 C-3.92114224 273.186204 1.1049277 271.95995615 7.48071289 271.88989258 C8.49152168 271.87482414 8.49152168 271.87482414 9.52275085 271.85945129 C11.73024716 271.8287818 13.93762311 271.81163001 16.14526367 271.79467773 C17.68369572 271.77595296 19.22211764 271.75637858 20.76052856 271.73599243 C24.79473889 271.68480334 28.82898246 271.64510719 32.86334229 271.60784912 C37.71186044 271.56066247 42.56021533 271.49912162 47.40859985 271.44000244 C54.76085891 271.35195143 62.11308923 271.28207213 69.46557617 271.20874023 C69.46557617 248.76874023 69.46557617 226.32874023 69.46557617 203.20874023 C64.42147461 203.18295898 59.37737305 203.15717773 54.18041992 203.13061523 C50.9765937 203.10543572 47.77286086 203.07909451 44.5690918 203.04858398 C39.48876645 203.00031257 34.40865736 202.9562442 29.328125 202.93774414 C25.23002294 202.92255154 21.13248826 202.88806059 17.03463936 202.84043121 C15.47467556 202.8256441 13.91463074 202.81770075 12.35459709 202.81685638 C10.16173358 202.81447674 7.9704255 202.78732142 5.77783203 202.75463867 C4.53206894 202.74575623 3.28630585 202.73687378 2.00279236 202.72772217 C-3.57687573 201.90907078 -7.29037796 199.70522679 -10.94311523 195.3112793 C-13.67450534 189.81282082 -13.06343988 183.55435283 -12.99536133 177.56811523 C-12.99444489 176.25014954 -12.99352844 174.93218384 -12.99258423 173.57427979 C-12.98946696 170.79027018 -12.97299447 168.00677941 -12.94604492 165.22290039 C-12.91219946 161.68503642 -12.90441349 158.1477443 -12.90593529 154.6097374 C-12.9053865 151.86074537 -12.89433673 149.11187407 -12.8799324 146.36292267 C-12.87061869 144.43391883 -12.86703637 142.50488999 -12.86361694 140.5758667 C-12.71936559 127.03400073 -11.00896358 114.12974495 -1.43676758 103.80249023 C12.95919386 91.74180796 32.72417405 92.71409322 50.34057617 92.52124023 C57.64182617 92.41811523 64.94307617 92.31499023 72.46557617 92.20874023 C72.46557617 71.74874023 72.46557617 51.28874023 72.46557617 30.20874023 C60.26149493 30.121204 60.26149493 30.121204 48.05737305 30.06225586 C43.06565553 30.04445591 38.07410605 30.02360822 33.08251953 29.98242188 C29.04946515 29.94936015 25.01659143 29.93179085 20.98341179 29.92410851 C19.45954488 29.91864756 17.93568567 29.90798967 16.41189766 29.89155006 C2.1135105 29.74369882 -11.98239033 31.20833923 -25.40942383 36.45874023 Z " fill="#000000" transform="translate(298.534423828125,-0.208740234375)"/>
</svg>
