<?xml version="1.0" encoding="UTF-8"?>
<svg version="1.1" xmlns="http://www.w3.org/2000/svg" width="512" height="512">
<path d="M0 0 C1.51427582 0.00081573 1.51427582 0.00081573 3.05914307 0.00164795 C19.57458953 0.04242844 35.47683935 0.97005679 51.6875 4.375 C52.70279785 4.58398926 53.7180957 4.79297852 54.76416016 5.00830078 C101.41133632 14.91980487 153.80307591 39.63556054 184.6875 77.375 C186.36630276 80.75968298 186.98215269 83.54671787 187 87.3125 C187.01675781 88.12589844 187.03351563 88.93929687 187.05078125 89.77734375 C186.07538255 96.75196886 181.42865025 101.06990041 176.66503906 105.80151367 C175.95408081 106.51933517 175.24312256 107.23715668 174.51062012 107.97673035 C172.16574041 110.3398638 169.80998995 112.69179284 167.453125 115.04296875 C165.81471703 116.68593903 164.17668124 118.32928054 162.53900146 119.97297668 C159.10751494 123.41339146 155.67041369 126.84807529 152.22949219 130.27905273 C147.82491685 134.67213664 143.43639714 139.08087492 139.05218887 143.49427319 C135.67399825 146.89082605 132.28652818 150.27800331 128.89629364 153.6625309 C127.27453869 155.28413266 125.65587848 156.90883569 124.0404129 158.53670311 C121.77893277 160.81309134 119.5050313 163.0763167 117.22753906 165.33666992 C116.56546448 166.00841248 115.90338989 166.68015503 115.22125244 167.37225342 C110.7738386 171.75001593 106.75239433 174.64631947 100.46484375 175.7734375 C93.4654142 175.68427279 89.10709074 173.08484947 84.1875 168.3125 C59.00520258 145.15679582 27.39565558 134.24189284 -6.69628906 135.23876953 C-37.49154177 136.84232972 -68.0430679 151.52295752 -88.8828125 174.16796875 C-91.11305011 176.84803394 -93.23323965 179.57662787 -95.3125 182.375 C-95.90289062 183.13941406 -96.49328125 183.90382812 -97.1015625 184.69140625 C-115.79350155 209.91272127 -123.92335077 242.3128675 -119.49243164 273.3894043 C-114.39110416 304.42784666 -98.80015432 333.43703658 -73.3125 352.375 C-72.54808594 352.96539062 -71.78367188 353.55578125 -70.99609375 354.1640625 C-45.78266241 372.85015882 -13.6154491 380.79996489 17.44848633 376.65649414 C43.93309194 372.47064901 66.30173602 360.72392409 85.6875 342.375 C86.47253906 341.6428125 87.25757813 340.910625 88.06640625 340.15625 C91.9696045 336.40495287 95.24098038 332.66329666 98.33129883 328.21069336 C98.96022537 327.30629013 99.58915192 326.4018869 100.23713684 325.47007751 C100.71575668 324.77870193 101.19437653 324.08732635 101.6875 323.375 C100.57329681 323.38388245 99.45909363 323.39276489 98.31112671 323.4019165 C87.80572551 323.4830382 77.30038795 323.54298271 66.79474449 323.58224869 C61.39379182 323.60311448 55.9930922 323.63141407 50.59228516 323.67675781 C45.37921286 323.72025098 40.16638382 323.74414469 34.95314407 323.75450897 C32.96522823 323.76189407 30.97732555 323.77631549 28.9895134 323.79792023 C26.20284102 323.82700018 23.41717103 323.83095406 20.63037109 323.82910156 C19.81037628 323.84348267 18.99038147 323.85786377 18.14553833 323.87268066 C12.85337088 323.83466762 9.90064872 322.85501858 5.6875 319.375 C2.22318806 315.44253779 0.56761142 313.13421029 0.54032898 307.9229126 C0.52959602 306.51821716 0.52959602 306.51821716 0.51864624 305.08514404 C0.51595734 304.05447815 0.51326843 303.02381226 0.51049805 301.96191406 C0.50392685 300.87885986 0.49735565 299.79580566 0.49058533 298.67993164 C0.47081945 295.08349545 0.45918231 291.48710108 0.44921875 287.890625 C0.44514322 286.66430107 0.4410677 285.43797714 0.43686867 284.17449188 C0.41814793 278.35351897 0.4035856 272.53256256 0.3952567 266.71156526 C0.38646052 260.66403863 0.36717391 254.61676302 0.33081055 248.56933594 C0.2924272 242.08310866 0.27357431 235.59710794 0.26905251 229.11077118 C0.26417624 226.63722241 0.25253289 224.16367743 0.23401451 221.69019318 C0.20970845 218.22841531 0.210573 214.76750085 0.2175293 211.30566406 C0.19831421 209.77181061 0.19831421 209.77181061 0.17871094 208.20697021 C0.22228556 202.25958687 0.74976651 198.91533206 4.6875 194.375 C10.1062202 189.60136554 13.47735402 189.22757854 20.543396 189.23455811 C21.47192139 189.23158698 22.40044678 189.22861586 23.35710931 189.2255547 C26.48775633 189.21684019 29.61836523 189.21535713 32.74902344 189.21386719 C34.98586103 189.20924093 37.22269782 189.20421653 39.45953369 189.19882202 C45.55053266 189.18567679 51.6415206 189.17924884 57.73253155 189.17481136 C61.53539619 189.17188384 65.33825779 189.16777963 69.14112091 189.16330719 C79.66855078 189.15119478 90.19597885 189.14081412 100.72341537 189.1374321 C101.39745113 189.13721253 102.07148688 189.13699297 102.76594795 189.13676675 C103.44160714 189.13654847 104.11726632 189.13633019 104.81340003 189.1361053 C106.18256617 189.13566183 107.5517323 189.13521527 108.92089844 189.13476562 C109.60005374 189.1345442 110.27920904 189.13432277 110.97894481 189.13409463 C121.98082292 189.13014762 132.98263475 189.1126975 143.98448727 189.0894061 C155.27792458 189.06569032 166.57132979 189.05348808 177.86479592 189.05206418 C184.20642937 189.05101475 190.54796941 189.04507765 196.88957977 189.02724457 C202.8550735 189.01079624 208.82040328 189.00859269 214.78591156 189.01738358 C216.9764754 189.01815571 219.16704794 189.01378816 221.35758972 189.00392532 C224.34647944 188.99125647 227.33478409 188.9970553 230.32366943 189.00750732 C231.19196436 188.99945092 232.06025928 188.99139452 232.95486617 188.98309398 C239.46371059 189.03638113 243.6130685 190.38046815 248.42578125 195.0078125 C251.2981664 198.74042016 252.06091116 202.68810123 252.875 207.25 C253.02646484 207.99507812 253.17792969 208.74015625 253.33398438 209.5078125 C253.84279913 212.12333688 254.27428448 214.74262332 254.6875 217.375 C254.95675293 219.06580688 254.95675293 219.06580688 255.23144531 220.79077148 C256.89179813 232.41695401 257.08621637 243.95639927 257.0625 255.6875 C257.06168427 257.20843765 257.06168427 257.20843765 257.06085205 258.76010132 C257.02094543 274.97511853 256.08443776 290.47316645 252.6875 306.375 C252.37401611 307.9230835 252.37401611 307.9230835 252.05419922 309.50244141 C243.47817507 351.25194024 224.53892842 390.09617261 196.6875 422.375 C196.04167969 423.13167969 195.39585937 423.88835937 194.73046875 424.66796875 C183.71653583 437.24027841 171.89559577 449.1826785 158.41455078 459.09667969 C156.64189667 460.40875446 154.89653121 461.75193348 153.15234375 463.1015625 C143.52569347 470.46586565 133.32215176 476.58093258 122.6875 482.375 C122.0270166 482.7369043 121.3665332 483.09880859 120.68603516 483.47167969 C88.36071261 500.96971753 50.63011972 512.29240915 13.73046875 512.61328125 C12.79756516 512.62302979 11.86466156 512.63277832 10.90348816 512.64282227 C-9.84555174 512.81494651 -29.92238254 512.62847497 -50.3125 508.375 C-51.20356445 508.19308105 -52.09462891 508.01116211 -53.01269531 507.82373047 C-58.8574774 506.59017499 -64.58821342 505.07865672 -70.3125 503.375 C-71.23417969 503.10204102 -72.15585938 502.82908203 -73.10546875 502.54785156 C-102.93222633 493.53810003 -130.79099726 479.6720939 -155.3125 460.375 C-156.281875 459.61703125 -157.25125 458.8590625 -158.25 458.078125 C-173.63304884 445.75420519 -188.19999614 431.94197247 -200.3125 416.375 C-201.08851563 415.4159375 -201.86453125 414.456875 -202.6640625 413.46875 C-238.04312723 368.99221148 -255.84001989 313.21801745 -255.625 256.75 C-255.62284485 255.73209381 -255.6206897 254.71418762 -255.61846924 253.66543579 C-255.56879854 239.05636477 -255.31790191 224.72424147 -252.3125 210.375 C-252.11382324 209.40014648 -251.91514648 208.42529297 -251.71044922 207.42089844 C-241.24053661 157.36922631 -218.01012171 112.91564373 -182.3125 76.375 C-181.23435201 75.25653258 -180.15622581 74.13804415 -179.078125 73.01953125 C-172.87108105 66.638829 -166.33219458 60.85639812 -159.3125 55.375 C-158.35214844 54.59769531 -157.39179688 53.82039063 -156.40234375 53.01953125 C-112.03534984 17.73907718 -56.33929311 -0.11461194 0 0 Z M-154.3125 97.375 C-154.80991699 97.84518555 -155.30733398 98.31537109 -155.81982422 98.79980469 C-165.92477551 108.38863415 -174.27346747 119.02831544 -182.3125 130.375 C-178.88018391 133.25303389 -175.44518845 135.55139452 -171.515625 137.6953125 C-169.84161621 138.61509888 -169.84161621 138.61509888 -168.13378906 139.5534668 C-167.5502063 139.87149261 -166.96662354 140.18951843 -166.36535645 140.5171814 C-163.32111971 142.17673255 -160.28557126 143.85200893 -157.25 145.52734375 C-156.65060608 145.85783218 -156.05121216 146.18832062 -155.43365479 146.52882385 C-149.13915817 150.00791605 -142.94234311 153.64150245 -136.765625 157.32421875 C-135.61478016 158.00814381 -134.46373802 158.69173698 -133.3125 159.375 C-132.67505859 159.7560791 -132.03761719 160.1371582 -131.38085938 160.52978516 C-128.07159038 162.65537532 -128.07159038 162.65537532 -124.3125 163.375 C-123.06435669 161.96821977 -121.8894161 160.49620296 -120.75 159 C-113.38760159 149.61161785 -105.7578756 141.68546194 -96.3125 134.375 C-95.43335938 133.65699219 -94.55421875 132.93898438 -93.6484375 132.19921875 C-60.92020974 106.24711702 -18.62406299 97.75882642 22.30859375 101.8359375 C51.10002195 105.54802139 74.9412798 118.54418653 98.6875 134.375 C113.8675 119.195 129.0475 104.015 144.6875 88.375 C107.66502312 51.35252312 52.03480744 34.17671334 0.6875 34 C-57.8247251 34.12940411 -112.20491533 57.06903338 -154.3125 97.375 Z M-200.3125 161.375 C-209.39089868 180.81188566 -215.97721663 201.14192839 -219.3125 222.375 C-219.51617187 223.6228125 -219.71984375 224.870625 -219.9296875 226.15625 C-226.14067868 268.90822983 -218.25690371 312.40697538 -200.3125 351.375 C-195.96690192 350.42908831 -192.40185424 348.36082307 -188.5625 346.1875 C-187.78825684 345.75332764 -187.01401367 345.31915527 -186.21630859 344.87182617 C-176.49981335 339.39617426 -166.88220556 333.74764846 -157.26269531 328.10400391 C-152.28404802 325.18619688 -147.29814825 322.28082341 -142.3125 319.375 C-142.5391333 318.726521 -142.7657666 318.07804199 -142.99926758 317.40991211 C-151.44483276 293.09365958 -151.44483276 293.09365958 -153.3125 280.375 C-153.49425781 279.23675781 -153.67601562 278.09851563 -153.86328125 276.92578125 C-157.32958286 248.13039956 -152.63294764 220.25116573 -142.3125 193.375 C-142.96395996 192.99915771 -143.61541992 192.62331543 -144.28662109 192.23608398 C-145.21039551 191.70313721 -146.13416992 191.17019043 -147.0859375 190.62109375 C-148.1267749 190.02063232 -149.1676123 189.4201709 -150.23999023 188.80151367 C-152.55728612 187.46456802 -154.87451776 186.12751172 -157.19165039 184.7902832 C-162.75809085 181.57807225 -168.32507986 178.36683414 -173.89526367 175.16111755 C-175.69484151 174.12538357 -177.49418463 173.08924301 -179.29345703 172.05297852 C-181.56870533 170.74275819 -183.84440965 169.43332939 -186.12060547 168.12475586 C-187.1520166 167.53057861 -188.18342773 166.93640137 -189.24609375 166.32421875 C-190.15415771 165.80174561 -191.06222168 165.27927246 -191.99780273 164.7409668 C-193.80376201 163.67522034 -195.56771129 162.53819248 -197.3125 161.375 C-198.3025 161.375 -199.2925 161.375 -200.3125 161.375 Z M34.6875 223.375 C34.6875 245.155 34.6875 266.935 34.6875 289.375 C41.89722656 289.40078125 49.10695313 289.4265625 56.53515625 289.453125 C61.10615524 289.47829528 65.67708819 289.50462966 70.24804688 289.53515625 C77.50122316 289.58348486 84.75424656 289.62753203 92.00756836 289.64599609 C97.85623061 289.6611543 103.70449259 289.69558578 109.55297661 289.74330902 C111.78281612 289.7581313 114.01271278 289.7660415 116.24260139 289.76688385 C119.36927959 289.76925261 122.4948508 289.79632645 125.62133789 289.82910156 C126.54059555 289.8240712 127.45985321 289.81904083 128.40696716 289.81385803 C134.32994663 289.90973922 137.81541895 290.95748794 142.6875 294.375 C144.24609375 296.234375 144.24609375 296.234375 145.125 298.125 C145.43308594 298.73859375 145.74117188 299.3521875 146.05859375 299.984375 C147.86429163 306.84827004 146.44925322 312.21961754 143.6875 318.5 C143.37280762 319.23500732 143.05811523 319.97001465 142.73388672 320.72729492 C132.41248647 344.25917273 115.12453738 366.9283009 93.6875 381.375 C95.310072 387.51612694 98.58490608 392.59738458 101.8125 398 C103.06895306 400.12686933 104.32410456 402.25450797 105.578125 404.3828125 C106.24134766 405.50719727 106.90457031 406.63158203 107.58789062 407.79003906 C111.30489532 414.11770325 114.92876334 420.49930032 118.5625 426.875 C119.27747827 428.12843408 119.99248411 429.38185243 120.70751953 430.63525391 C122.36845973 433.54796484 124.02849713 436.46118532 125.6875 439.375 C134.1904573 434.17984309 134.1904573 434.17984309 141.875 427.875 C143.10863281 426.72257812 143.10863281 426.72257812 144.3671875 425.546875 C145.13289063 424.83015625 145.89859375 424.1134375 146.6875 423.375 C147.95395959 422.28655681 149.22459992 421.2029532 150.5 420.125 C161.10425796 410.82489473 170.28334869 400.68050933 178.6875 389.375 C179.1112793 388.81731934 179.53505859 388.25963867 179.97167969 387.68505859 C208.50051193 350.11076648 222.85278729 302.88862471 223 256 C223.00563965 254.70570068 223.0112793 253.41140137 223.01708984 252.07788086 C222.94370913 242.26787488 221.84965524 233.2533195 220.6875 223.375 C159.3075 223.375 97.9275 223.375 34.6875 223.375 Z M-131.37890625 352.0859375 C-132.41362061 352.66649902 -133.44833496 353.24706055 -134.5144043 353.84521484 C-135.62340088 354.47379395 -136.73239746 355.10237305 -137.875 355.75 C-139.57233276 356.70640381 -139.57233276 356.70640381 -141.30395508 357.68212891 C-149.07803374 362.07509333 -156.7980546 366.55193225 -164.4765625 371.109375 C-170.37750783 374.60824581 -176.34583929 377.98979472 -182.3125 381.375 C-179.63231225 386.35249154 -176.71668136 390.56569335 -173 394.8125 C-172.50927002 395.38105713 -172.01854004 395.94961426 -171.51293945 396.53540039 C-170.5435529 397.65716704 -169.57187912 398.77696224 -168.59765625 399.89453125 C-167.56341485 401.08595219 -166.54476298 402.29089679 -165.53125 403.5 C-155.67289888 415.16906867 -144.56247678 425.29800198 -132.3125 434.375 C-131.19269089 435.22523745 -130.0728991 436.0754977 -128.953125 436.92578125 C-98.97866267 459.33829716 -62.2684108 472.72078572 -25.3125 477.375 C-24.57104736 477.47071289 -23.82959473 477.56642578 -23.06567383 477.66503906 C-15.43538553 478.54500204 -7.79876113 478.61833306 -0.125 478.625 C0.57792175 478.62567474 1.28084351 478.62634949 2.00506592 478.62704468 C14.74996595 478.60774679 27.14252097 477.6949306 39.6875 475.375 C41.04246582 475.12556641 41.04246582 475.12556641 42.42480469 474.87109375 C60.92623379 471.32952278 78.6510778 465.38924175 95.6875 457.375 C94.74158831 453.02940192 92.67332307 449.46435424 90.5 445.625 C90.06582764 444.85075684 89.63165527 444.07651367 89.18432617 443.27880859 C83.70867426 433.56231335 78.06014846 423.94470556 72.41650391 414.32519531 C69.49869688 409.34654802 66.59332341 404.36064825 63.6875 399.375 C63.039021 399.6016333 62.39054199 399.8282666 61.72241211 400.06176758 C37.40615958 408.50733276 37.40615958 408.50733276 24.6875 410.375 C23.55054688 410.55675781 22.41359375 410.73851562 21.2421875 410.92578125 C3.65771092 413.04305295 -16.13817774 412.68309571 -33.3125 408.375 C-34.54154053 408.07698486 -34.54154053 408.07698486 -35.79541016 407.77294922 C-61.33390548 401.44402936 -83.78363234 390.05654234 -103.3125 372.375 C-104.20453125 371.61445313 -105.0965625 370.85390625 -106.015625 370.0703125 C-113.07995174 363.98112288 -119.13434318 357.14223524 -124.3125 349.375 C-127.19261205 349.375 -128.87337559 350.67525874 -131.37890625 352.0859375 Z " fill="#000000" transform="translate(255.3125,-0.375)"/>
</svg>
